<svg xmlns="http://www.w3.org/2000/svg" xmlns:xlink="http://www.w3.org/1999/xlink" width="500" zoomAndPan="magnify" viewBox="0 0 375 374.999991" height="500" preserveAspectRatio="xMidYMid meet" version="1.0"><defs><clipPath id="7ce3045da2"><path d="M 145.734375 178 L 216.234375 178 L 216.234375 227.824219 L 145.734375 227.824219 Z M 145.734375 178 " clip-rule="nonzero"/></clipPath><clipPath id="347c1282f7"><path d="M 145.734375 162 L 216.234375 162 L 216.234375 213 L 145.734375 213 Z M 145.734375 162 " clip-rule="nonzero"/></clipPath><clipPath id="aacd630845"><path d="M 145.734375 147 L 216.234375 147 L 216.234375 197 L 145.734375 197 Z M 145.734375 147 " clip-rule="nonzero"/></clipPath></defs><g clip-path="url(#7ce3045da2)"><path fill="#ffffff" d="M 145.816406 227.769531 L 216.15625 227.824219 L 181.058594 178.980469 Z M 145.816406 227.769531 " fill-opacity="1" fill-rule="nonzero"/></g><g clip-path="url(#347c1282f7)"><path fill="#ffffff" d="M 146.851562 211.347656 L 181.058594 163.980469 L 215.097656 211.375 L 146.851562 211.347656 M 145.734375 211.347656 C 145.734375 211.515625 145.761719 211.679688 145.847656 211.847656 C 146.042969 212.210938 146.429688 212.460938 146.851562 212.460938 L 215.097656 212.488281 C 215.515625 212.488281 215.90625 212.265625 216.101562 211.875 C 216.1875 211.710938 216.214844 211.542969 216.214844 211.375 C 216.214844 211.152344 216.128906 210.929688 215.992188 210.734375 L 181.949219 163.339844 C 181.726562 163.058594 181.390625 162.863281 181.058594 162.863281 C 180.695312 162.863281 180.359375 163.03125 180.164062 163.339844 L 145.957031 210.675781 C 145.816406 210.871094 145.734375 211.097656 145.734375 211.347656 Z M 145.734375 211.347656 " fill-opacity="1" fill-rule="nonzero"/></g><g clip-path="url(#aacd630845)"><path fill="#ffffff" d="M 146.90625 195.621094 L 181.113281 148.285156 L 215.15625 195.679688 L 146.90625 195.621094 M 145.789062 195.621094 C 145.789062 195.789062 145.816406 195.957031 145.902344 196.125 C 146.097656 196.488281 146.488281 196.738281 146.90625 196.738281 L 215.15625 196.792969 C 215.574219 196.792969 215.964844 196.570312 216.15625 196.179688 C 216.242188 196.011719 216.269531 195.847656 216.269531 195.679688 C 216.269531 195.457031 216.1875 195.230469 216.046875 195.039062 L 182.003906 147.640625 C 181.78125 147.363281 181.449219 147.167969 181.113281 147.167969 C 180.75 147.167969 180.417969 147.335938 180.222656 147.640625 L 146.011719 194.953125 C 145.875 195.148438 145.789062 195.398438 145.789062 195.621094 Z M 145.789062 195.621094 " fill-opacity="1" fill-rule="nonzero"/></g></svg>